<svg width="237" height="215" viewBox="0 0 237 215" fill="none" xmlns="http://www.w3.org/2000/svg">
<path opacity="0.5" fill-rule="evenodd" clip-rule="evenodd" d="M2.5 5C3.88071 5 5 3.88071 5 2.5C5 1.11929 3.88071 0 2.5 0C1.11929 0 0 1.11929 0 2.5C0 3.88071 1.11929 5 2.5 5ZM5 37.5C5 38.8807 3.88071 40 2.5 40C1.11929 40 0 38.8807 0 37.5C0 36.1193 1.11929 35 2.5 35C3.88071 35 5 36.1193 5 37.5ZM2.5 75C3.88071 75 5 73.8807 5 72.5C5 71.1193 3.88071 70 2.5 70C1.11929 70 0 71.1193 0 72.5C0 73.8807 1.11929 75 2.5 75ZM5 107.5C5 108.881 3.88071 110 2.5 110C1.11929 110 0 108.881 0 107.5C0 106.119 1.11929 105 2.5 105C3.88071 105 5 106.119 5 107.5ZM2.5 145C3.88071 145 5 143.881 5 142.5C5 141.119 3.88071 140 2.5 140C1.11929 140 0 141.119 0 142.5C0 143.881 1.11929 145 2.5 145ZM5 177.5C5 178.881 3.88071 180 2.5 180C1.11929 180 0 178.881 0 177.5C0 176.119 1.11929 175 2.5 175C3.88071 175 5 176.119 5 177.5ZM5 212.5C5 213.881 3.88071 215 2.5 215C1.11929 215 0 213.881 0 212.5C0 211.119 1.11929 210 2.5 210C3.88071 210 5 211.119 5 212.5ZM40 212.5C40 213.881 38.8807 215 37.5 215C36.1193 215 35 213.881 35 212.5C35 211.119 36.1193 210 37.5 210C38.8807 210 40 211.119 40 212.5ZM72.5 215C73.8807 215 75 213.881 75 212.5C75 211.119 73.8807 210 72.5 210C71.1193 210 70 211.119 70 212.5C70 213.881 71.1193 215 72.5 215ZM110 212.5C110 213.881 108.881 215 107.5 215C106.119 215 105 213.881 105 212.5C105 211.119 106.119 210 107.5 210C108.881 210 110 211.119 110 212.5ZM142.5 215C143.881 215 145 213.881 145 212.5C145 211.119 143.881 210 142.5 210C141.119 210 140 211.119 140 212.5C140 213.881 141.119 215 142.5 215ZM180 212.5C180 213.881 178.881 215 177.5 215C176.119 215 175 213.881 175 212.5C175 211.119 176.119 210 177.5 210C178.881 210 180 211.119 180 212.5ZM212.5 215C213.881 215 215 213.881 215 212.5C215 211.119 213.881 210 212.5 210C211.119 210 210 211.119 210 212.5C210 213.881 211.119 215 212.5 215ZM250 212.5C250 213.881 248.881 215 247.5 215C246.119 215 245 213.881 245 212.5C245 211.119 246.119 210 247.5 210C248.881 210 250 211.119 250 212.5ZM282.5 215C283.881 215 285 213.881 285 212.5C285 211.119 283.881 210 282.5 210C281.119 210 280 211.119 280 212.5C280 213.881 281.119 215 282.5 215ZM320 212.5C320 213.881 318.881 215 317.5 215C316.119 215 315 213.881 315 212.5C315 211.119 316.119 210 317.5 210C318.881 210 320 211.119 320 212.5ZM352.5 215C353.881 215 355 213.881 355 212.5C355 211.119 353.881 210 352.5 210C351.119 210 350 211.119 350 212.5C350 213.881 351.119 215 352.5 215ZM37.5 180C38.8807 180 40 178.881 40 177.5C40 176.119 38.8807 175 37.5 175C36.1193 175 35 176.119 35 177.5C35 178.881 36.1193 180 37.5 180ZM75 177.5C75 178.881 73.8807 180 72.5 180C71.1193 180 70 178.881 70 177.5C70 176.119 71.1193 175 72.5 175C73.8807 175 75 176.119 75 177.5ZM107.5 180C108.881 180 110 178.881 110 177.5C110 176.119 108.881 175 107.5 175C106.119 175 105 176.119 105 177.5C105 178.881 106.119 180 107.5 180ZM145 177.5C145 178.881 143.881 180 142.5 180C141.119 180 140 178.881 140 177.5C140 176.119 141.119 175 142.5 175C143.881 175 145 176.119 145 177.5ZM177.5 180C178.881 180 180 178.881 180 177.5C180 176.119 178.881 175 177.5 175C176.119 175 175 176.119 175 177.5C175 178.881 176.119 180 177.5 180ZM215 177.5C215 178.881 213.881 180 212.5 180C211.119 180 210 178.881 210 177.5C210 176.119 211.119 175 212.5 175C213.881 175 215 176.119 215 177.5ZM247.5 180C248.881 180 250 178.881 250 177.5C250 176.119 248.881 175 247.5 175C246.119 175 245 176.119 245 177.5C245 178.881 246.119 180 247.5 180ZM285 177.5C285 178.881 283.881 180 282.5 180C281.119 180 280 178.881 280 177.5C280 176.119 281.119 175 282.5 175C283.881 175 285 176.119 285 177.5ZM317.5 180C318.881 180 320 178.881 320 177.5C320 176.119 318.881 175 317.5 175C316.119 175 315 176.119 315 177.5C315 178.881 316.119 180 317.5 180ZM355 177.5C355 178.881 353.881 180 352.5 180C351.119 180 350 178.881 350 177.5C350 176.119 351.119 175 352.5 175C353.881 175 355 176.119 355 177.5ZM40 142.5C40 143.881 38.8807 145 37.5 145C36.1193 145 35 143.881 35 142.5C35 141.119 36.1193 140 37.5 140C38.8807 140 40 141.119 40 142.5ZM72.5 145C73.8807 145 75 143.881 75 142.5C75 141.119 73.8807 140 72.5 140C71.1193 140 70 141.119 70 142.5C70 143.881 71.1193 145 72.5 145ZM110 142.5C110 143.881 108.881 145 107.5 145C106.119 145 105 143.881 105 142.5C105 141.119 106.119 140 107.5 140C108.881 140 110 141.119 110 142.5ZM142.5 145C143.881 145 145 143.881 145 142.5C145 141.119 143.881 140 142.5 140C141.119 140 140 141.119 140 142.5C140 143.881 141.119 145 142.5 145ZM180 142.5C180 143.881 178.881 145 177.5 145C176.119 145 175 143.881 175 142.5C175 141.119 176.119 140 177.5 140C178.881 140 180 141.119 180 142.5ZM212.5 145C213.881 145 215 143.881 215 142.5C215 141.119 213.881 140 212.5 140C211.119 140 210 141.119 210 142.5C210 143.881 211.119 145 212.5 145ZM250 142.5C250 143.881 248.881 145 247.5 145C246.119 145 245 143.881 245 142.5C245 141.119 246.119 140 247.5 140C248.881 140 250 141.119 250 142.5ZM282.5 145C283.881 145 285 143.881 285 142.5C285 141.119 283.881 140 282.5 140C281.119 140 280 141.119 280 142.5C280 143.881 281.119 145 282.5 145ZM320 142.5C320 143.881 318.881 145 317.5 145C316.119 145 315 143.881 315 142.5C315 141.119 316.119 140 317.5 140C318.881 140 320 141.119 320 142.5ZM352.5 145C353.881 145 355 143.881 355 142.5C355 141.119 353.881 140 352.5 140C351.119 140 350 141.119 350 142.5C350 143.881 351.119 145 352.5 145ZM37.5 110C38.8807 110 40 108.881 40 107.5C40 106.119 38.8807 105 37.5 105C36.1193 105 35 106.119 35 107.5C35 108.881 36.1193 110 37.5 110ZM75 107.5C75 108.881 73.8807 110 72.5 110C71.1193 110 70 108.881 70 107.5C70 106.119 71.1193 105 72.5 105C73.8807 105 75 106.119 75 107.5ZM107.5 110C108.881 110 110 108.881 110 107.5C110 106.119 108.881 105 107.5 105C106.119 105 105 106.119 105 107.5C105 108.881 106.119 110 107.5 110ZM145 107.5C145 108.881 143.881 110 142.5 110C141.119 110 140 108.881 140 107.5C140 106.119 141.119 105 142.5 105C143.881 105 145 106.119 145 107.5ZM177.5 110C178.881 110 180 108.881 180 107.5C180 106.119 178.881 105 177.5 105C176.119 105 175 106.119 175 107.5C175 108.881 176.119 110 177.5 110ZM215 107.5C215 108.881 213.881 110 212.5 110C211.119 110 210 108.881 210 107.5C210 106.119 211.119 105 212.5 105C213.881 105 215 106.119 215 107.5ZM247.5 110C248.881 110 250 108.881 250 107.5C250 106.119 248.881 105 247.5 105C246.119 105 245 106.119 245 107.5C245 108.881 246.119 110 247.5 110ZM285 107.5C285 108.881 283.881 110 282.5 110C281.119 110 280 108.881 280 107.5C280 106.119 281.119 105 282.5 105C283.881 105 285 106.119 285 107.5ZM317.5 110C318.881 110 320 108.881 320 107.5C320 106.119 318.881 105 317.5 105C316.119 105 315 106.119 315 107.5C315 108.881 316.119 110 317.5 110ZM355 107.5C355 108.881 353.881 110 352.5 110C351.119 110 350 108.881 350 107.5C350 106.119 351.119 105 352.5 105C353.881 105 355 106.119 355 107.5ZM40 72.5C40 73.8807 38.8807 75 37.5 75C36.1193 75 35 73.8807 35 72.5C35 71.1193 36.1193 70 37.5 70C38.8807 70 40 71.1193 40 72.5ZM72.5 75C73.8807 75 75 73.8807 75 72.5C75 71.1193 73.8807 70 72.5 70C71.1193 70 70 71.1193 70 72.5C70 73.8807 71.1193 75 72.5 75ZM110 72.5C110 73.8807 108.881 75 107.5 75C106.119 75 105 73.8807 105 72.5C105 71.1193 106.119 70 107.5 70C108.881 70 110 71.1193 110 72.5ZM142.5 75C143.881 75 145 73.8807 145 72.5C145 71.1193 143.881 70 142.5 70C141.119 70 140 71.1193 140 72.5C140 73.8807 141.119 75 142.5 75ZM180 72.5C180 73.8807 178.881 75 177.5 75C176.119 75 175 73.8807 175 72.5C175 71.1193 176.119 70 177.5 70C178.881 70 180 71.1193 180 72.5ZM212.5 75C213.881 75 215 73.8807 215 72.5C215 71.1193 213.881 70 212.5 70C211.119 70 210 71.1193 210 72.5C210 73.8807 211.119 75 212.5 75ZM250 72.5C250 73.8807 248.881 75 247.5 75C246.119 75 245 73.8807 245 72.5C245 71.1193 246.119 70 247.5 70C248.881 70 250 71.1193 250 72.5ZM282.5 75C283.881 75 285 73.8807 285 72.5C285 71.1193 283.881 70 282.5 70C281.119 70 280 71.1193 280 72.5C280 73.8807 281.119 75 282.5 75ZM320 72.5C320 73.8807 318.881 75 317.5 75C316.119 75 315 73.8807 315 72.5C315 71.1193 316.119 70 317.5 70C318.881 70 320 71.1193 320 72.5ZM352.5 75C353.881 75 355 73.8807 355 72.5C355 71.1193 353.881 70 352.5 70C351.119 70 350 71.1193 350 72.5C350 73.8807 351.119 75 352.5 75ZM37.5 40C38.8807 40 40 38.8807 40 37.5C40 36.1193 38.8807 35 37.5 35C36.1193 35 35 36.1193 35 37.5C35 38.8807 36.1193 40 37.5 40ZM75 37.5C75 38.8807 73.8807 40 72.5 40C71.1193 40 70 38.8807 70 37.5C70 36.1193 71.1193 35 72.5 35C73.8807 35 75 36.1193 75 37.5ZM107.5 40C108.881 40 110 38.8807 110 37.5C110 36.1193 108.881 35 107.5 35C106.119 35 105 36.1193 105 37.5C105 38.8807 106.119 40 107.5 40ZM145 37.5C145 38.8807 143.881 40 142.5 40C141.119 40 140 38.8807 140 37.5C140 36.1193 141.119 35 142.5 35C143.881 35 145 36.1193 145 37.5ZM177.5 40C178.881 40 180 38.8807 180 37.5C180 36.1193 178.881 35 177.5 35C176.119 35 175 36.1193 175 37.5C175 38.8807 176.119 40 177.5 40ZM215 37.5C215 38.8807 213.881 40 212.5 40C211.119 40 210 38.8807 210 37.5C210 36.1193 211.119 35 212.5 35C213.881 35 215 36.1193 215 37.5ZM247.5 40C248.881 40 250 38.8807 250 37.5C250 36.1193 248.881 35 247.5 35C246.119 35 245 36.1193 245 37.5C245 38.8807 246.119 40 247.5 40ZM285 37.5C285 38.8807 283.881 40 282.5 40C281.119 40 280 38.8807 280 37.5C280 36.1193 281.119 35 282.5 35C283.881 35 285 36.1193 285 37.5ZM317.5 40C318.881 40 320 38.8807 320 37.5C320 36.1193 318.881 35 317.5 35C316.119 35 315 36.1193 315 37.5C315 38.8807 316.119 40 317.5 40ZM355 37.5C355 38.8807 353.881 40 352.5 40C351.119 40 350 38.8807 350 37.5C350 36.1193 351.119 35 352.5 35C353.881 35 355 36.1193 355 37.5ZM40 2.5C40 3.88071 38.8807 5 37.5 5C36.1193 5 35 3.88071 35 2.5C35 1.11929 36.1193 0 37.5 0C38.8807 0 40 1.11929 40 2.5ZM72.5 5C73.8807 5 75 3.88071 75 2.5C75 1.11929 73.8807 0 72.5 0C71.1193 0 70 1.11929 70 2.5C70 3.88071 71.1193 5 72.5 5ZM110 2.5C110 3.88071 108.881 5 107.5 5C106.119 5 105 3.88071 105 2.5C105 1.11929 106.119 0 107.5 0C108.881 0 110 1.11929 110 2.5ZM142.5 5C143.881 5 145 3.88071 145 2.5C145 1.11929 143.881 0 142.5 0C141.119 0 140 1.11929 140 2.5C140 3.88071 141.119 5 142.5 5ZM180 2.5C180 3.88071 178.881 5 177.5 5C176.119 5 175 3.88071 175 2.5C175 1.11929 176.119 0 177.5 0C178.881 0 180 1.11929 180 2.5ZM212.5 5C213.881 5 215 3.88071 215 2.5C215 1.11929 213.881 0 212.5 0C211.119 0 210 1.11929 210 2.5C210 3.88071 211.119 5 212.5 5ZM250 2.5C250 3.88071 248.881 5 247.5 5C246.119 5 245 3.88071 245 2.5C245 1.11929 246.119 0 247.5 0C248.881 0 250 1.11929 250 2.5ZM282.5 5C283.881 5 285 3.88071 285 2.5C285 1.11929 283.881 0 282.5 0C281.119 0 280 1.11929 280 2.5C280 3.88071 281.119 5 282.5 5ZM320 2.5C320 3.88071 318.881 5 317.5 5C316.119 5 315 3.88071 315 2.5C315 1.11929 316.119 0 317.5 0C318.881 0 320 1.11929 320 2.5ZM352.5 5C353.881 5 355 3.88071 355 2.5C355 1.11929 353.881 0 352.5 0C351.119 0 350 1.11929 350 2.5C350 3.88071 351.119 5 352.5 5Z" fill="#A9A9A9"/>
</svg>
