<svg width="50" height="50" viewBox="0 0 50 50" fill="none" xmlns="http://www.w3.org/2000/svg">
<path fill-rule="evenodd" clip-rule="evenodd" d="M25 0C38.7979 0 50 11.2021 50 25C50 38.7979 38.7979 50 25 50C11.2021 50 0 38.7979 0 25C0 11.2021 11.2021 0 25 0ZM42.0635 30.2153C42.1419 29.0341 42.0456 27.9063 41.7722 26.8264C41.4963 25.7447 41.0538 24.7804 40.4341 23.9374C39.8136 23.0928 39.0231 22.4181 38.0605 21.9197C37.0929 21.4148 35.9659 21.1673 34.6779 21.1673C33.5113 21.1673 32.458 21.3744 31.5025 21.7862C30.5479 22.2004 29.7284 22.7667 29.0367 23.4843C28.3466 24.1979 27.8208 25.0489 27.4422 26.0352C27.07 27.0181 26.8799 28.0812 26.8799 29.2194C26.8799 30.3965 27.0627 31.483 27.426 32.4644C27.7933 33.4506 28.3086 34.2903 28.972 35.0006C29.6532 35.7085 30.4622 36.2506 31.4306 36.6381C32.3998 37.0199 33.479 37.2141 34.6779 37.2141C36.3987 37.2141 37.8744 36.8201 39.0854 36.0297C40.3111 35.2417 41.2083 33.9335 41.8005 32.1011H38.1179C37.9755 32.572 37.6065 33.0258 37.0007 33.4506C36.3891 33.8761 35.6609 34.0889 34.818 34.0889C33.6448 34.0889 32.7396 33.7814 32.1126 33.1698C31.4848 32.5582 31.0787 31.4191 31.0787 30.2153H42.0635V30.2153ZM18.0988 36.8201C19.0423 36.8201 19.962 36.7012 20.8479 36.4665C21.7442 36.2312 22.5428 35.8687 23.2394 35.376C23.9303 34.8873 24.4909 34.2539 24.9026 33.4724C25.3112 32.6998 25.515 31.7823 25.515 30.7161C25.515 29.4006 25.202 28.2793 24.5637 27.3417C23.9286 26.4105 22.9691 25.7561 21.6771 25.3839C22.6261 24.9341 23.3372 24.3557 23.821 23.6502C24.3023 22.9431 24.5418 22.0588 24.5418 21.0007C24.5418 20.0226 24.3809 19.1949 24.0613 18.534C23.7328 17.8633 23.2741 17.331 22.6884 16.9305C22.093 16.5301 21.3899 16.238 20.5647 16.0633C19.7354 15.8828 18.8278 15.7963 17.8222 15.7963H7.91016V36.8201H18.0988V36.8201ZM17.5714 27.4501C18.5673 27.4501 19.3771 27.6791 19.9854 28.1402C20.5914 28.607 20.8973 29.3771 20.8973 30.4605C20.8973 31.013 20.8074 31.4709 20.6205 31.8236C20.4345 32.1779 20.1772 32.4579 19.8682 32.6617C19.5575 32.8737 19.191 33.0177 18.7769 33.1075C18.369 33.1989 17.9354 33.2394 17.48 33.2394H12.5385V27.4501H17.5714V27.4501ZM36.9173 25.1711C36.4197 24.6218 35.5792 24.3241 34.5525 24.3241C33.8843 24.3241 33.3317 24.4365 32.8884 24.6654C32.4548 24.892 32.1005 25.1728 31.8294 25.5044C31.5592 25.841 31.3764 26.197 31.2687 26.5771C31.162 26.9477 31.0973 27.2834 31.0787 27.5804H37.8809C37.7813 26.5141 37.4165 25.7253 36.9173 25.1711V25.1711ZM16.87 19.3777C17.2802 19.3777 17.679 19.4069 18.0608 19.4813C18.4483 19.5484 18.7833 19.6715 19.0794 19.8502C19.3771 20.0226 19.6142 20.2677 19.793 20.5815C19.9652 20.8955 20.0502 21.3 20.0502 21.7887C20.0502 22.6704 19.793 23.312 19.2606 23.7012C18.7227 24.0959 18.0431 24.2901 17.2235 24.2901H12.5385V19.3777H16.87V19.3777ZM38.7448 19.2815V17.2072H30.2228V19.2815H38.7448Z" fill="#053EFF"/>
</svg>
