<svg width="50" height="50" viewBox="0 0 50 50" fill="none" xmlns="http://www.w3.org/2000/svg">
<path fill-rule="evenodd" clip-rule="evenodd" d="M25 0C38.7979 0 50 11.2021 50 25C50 38.7979 38.7979 50 25 50C11.2021 50 0 38.7979 0 25C0 11.2021 11.2021 0 25 0ZM39.5937 38.1757V37.6835L37.3096 35.441C37.1079 35.2874 37.0079 35.0347 37.0497 34.7847V18.3082C37.0079 18.0581 37.1079 17.8055 37.3096 17.6518L39.6484 15.4094V14.9171H31.5516L25.7796 29.3153L19.2145 14.9171H10.7208V15.4094L13.4563 18.7047C13.725 18.9467 13.862 19.3022 13.8256 19.6619V32.6106C13.9052 33.0776 13.758 33.5549 13.4291 33.8959L10.3516 37.6287V38.1209H19.0777V37.6287L16.0003 33.8959C15.6688 33.5556 15.5125 33.0814 15.5763 32.6106V21.4121L23.2357 38.1209H24.1247L30.7035 21.4121V34.7301C30.7035 35.0854 30.7035 35.1539 30.4709 35.3862L28.1048 37.6835V38.1757H39.5937Z" fill="black" fill-opacity="0.9"/>
</svg>
