<svg width="141" height="154" viewBox="0 0 141 154" fill="none" xmlns="http://www.w3.org/2000/svg">
<path fill-rule="evenodd" clip-rule="evenodd" d="M30.7535 3.9146C30.7535 2.01832 32.2907 0.481079 34.187 0.481079H108.32C109.34 0.481079 110.307 0.934442 110.959 1.71836C111.612 2.50229 111.882 3.53563 111.696 4.5385L109.793 14.8395H137.505C138.514 14.8395 139.472 15.2835 140.125 16.0536C140.777 16.8237 141.058 17.8419 140.892 18.8375L135.649 50.2916L139.996 121.851C140.055 122.833 139.691 123.793 138.995 124.488C138.299 125.183 137.339 125.547 136.357 125.486L84.4414 122.278V140.007C84.4414 141.634 83.2998 143.037 81.7072 143.369L35.1985 153.045C34.1869 153.255 33.1343 152.999 32.3326 152.347C31.531 151.695 31.0656 150.717 31.0656 149.683V127.748L4.88385 135.496C3.80764 135.814 2.64373 135.587 1.76678 134.886C0.889826 134.186 0.410558 133.101 0.483254 131.981L5.45387 55.4026L0.0446755 18.7746C-0.101153 17.7871 0.189959 16.7851 0.842186 16.0295C1.49441 15.2738 2.44318 14.8395 3.44136 14.8395H30.7535V3.9146ZM37.6205 7.34813V18.273C37.6205 20.1693 36.0833 21.7065 34.187 21.7065H7.41919L12.3005 54.7598C12.3359 54.9994 12.3458 55.2421 12.3301 55.4838L7.65467 127.515L33.5249 119.859C34.5635 119.552 35.6862 119.753 36.5539 120.401C37.4216 121.049 37.9327 122.068 37.9327 123.152V145.462L77.5743 137.214V118.626C77.5743 117.678 77.9658 116.773 78.656 116.124C79.3463 115.475 80.274 115.14 81.2196 115.199L132.906 118.393L128.771 50.3193C128.756 50.061 128.769 49.8019 128.812 49.5467L133.452 21.7065H105.667C104.647 21.7065 103.68 21.2531 103.028 20.4692C102.375 19.6853 102.105 18.652 102.29 17.6491L104.194 7.34813H37.6205ZM43.8633 20.9262C43.8633 19.0299 45.4006 17.4926 47.2968 17.4926H89.1234C90.1497 17.4926 91.1221 17.9517 91.7743 18.744C92.4265 19.5363 92.6902 20.5788 92.493 21.5859L88.123 43.9038C87.8075 45.5152 86.3954 46.6776 84.7535 46.6776H71.9558V58.5389H84.7535C86.6498 58.5389 88.187 60.0761 88.187 61.9724V84.6025C88.187 86.4987 86.6498 88.036 84.7535 88.036H71.9558V125.493C71.9558 127.068 70.8835 128.441 69.355 128.824L48.1296 134.13C47.1039 134.386 46.0172 134.156 45.1838 133.505C44.3504 132.855 43.8633 131.856 43.8633 130.799V20.9262ZM50.7304 24.3597V126.401L65.0888 122.812V84.6025C65.0888 82.7062 66.626 81.1689 68.5223 81.1689H81.32V65.4059H68.5223C66.626 65.4059 65.0888 63.8687 65.0888 61.9724V43.2441C65.0888 41.3478 66.626 39.8106 68.5223 39.8106H81.9271L84.9524 24.3597H50.7304Z" fill="#61BDB0"/>
</svg>
