<svg width="132" height="147" viewBox="0 0 132 147" fill="none" xmlns="http://www.w3.org/2000/svg">
<path d="M39.7437 113.309L40.3422 113.723V112.995V59.5051V59.4746V31.4938C40.3422 29.8595 41.3944 28.4195 42.9454 27.9208C42.9455 27.9208 42.9456 27.9207 42.9458 27.9207L126.215 1.46609C127.345 1.10777 128.593 1.32624 129.568 2.0215C130.507 2.7128 131.089 3.84914 131.089 5.03873V32.989V32.9891V32.9892V32.9893V32.9895V32.9896V32.9897V32.9898V32.9899V32.9901V32.9902V32.9903V32.9905V32.9906V32.9907V32.9908V32.991V32.9911V32.9912V32.9914V32.9915V32.9916V32.9918V32.9919V32.9921V32.9922V32.9923V32.9924V32.9926V32.9927V32.9928V32.993V32.9931V32.9932V32.9934V32.9935V32.9937V32.9938V32.994V32.9942V32.9943V32.9945V32.9947V32.9948V32.9949V32.995V32.9952V32.9953V32.9954V32.9955V32.9957V32.9958V32.9959V32.9961V32.9962V32.9963V32.9965V32.9966V32.9968V32.9969V32.9971V32.9972V32.9974V32.9975V32.9977V32.9978V32.998V32.9981V32.9983V32.9985V32.9986V32.9988V32.999V32.9991V32.9993V32.9995V32.9997V32.9998V33V33.0002V33.0004V33.0006V33.0008V33.001V33.0011V33.0013V33.0015V33.0017V33.0019V33.0021V33.0023V33.0026V33.0028V33.003V33.0032V33.0034V33.0036V33.0038V33.0041V33.0043V33.0045V33.0047V33.005V33.0051V33.0052V33.0054V33.0056V33.0057V33.0058V33.0059V33.0061V33.0062V33.0063V33.0064V33.0065V33.0067V33.0068V33.0069V33.007V33.0072V33.0073V33.0074V33.0075V33.0077V33.0078V33.0079V33.0081V33.0082V33.0083V33.0085V33.0086V33.0087V33.0089V33.009V33.0091V33.0093V33.0094V33.0095V33.0097V33.0098V33.01V33.0101V33.0102V33.0104V33.0105V33.0107V33.0108V33.0109V33.0111V33.0112V33.0114V33.0115V33.0117V33.0118V33.012V33.0121V33.0123V33.0124V33.0126V33.0127V33.0129V33.013V33.0132V33.0133V33.0135V33.0136V33.0138V33.014V33.0141V33.0143V33.0144V33.0146V33.0147V33.0149V33.0151V33.0152V33.0154V33.0155V33.0157V33.0159V33.016V33.0162V33.0164V33.0165V33.0167V33.0169V33.017V33.0172V33.0174V33.0176V33.0177V33.0179V33.0181V33.0182V33.0184V33.0186V33.0188V33.0189V33.0191V33.0193V33.0195V100.851C131.089 106.053 128.505 110.859 123.765 114.43C119.352 117.731 113.576 119.571 107.426 119.571C101.275 119.571 95.4994 117.731 91.0865 114.43C86.3462 110.859 83.7627 106.053 83.7627 100.851C83.7627 95.648 86.3462 90.842 91.0865 87.2718C95.4993 83.9701 101.306 82.1307 107.426 82.1307C113.215 82.1307 118.722 83.7594 123.015 86.7314L123.613 87.1458V86.4178V38.6339V38.1124L123.116 38.2705L48.0838 62.1319L47.818 62.2164V62.4954V127.428C47.818 132.63 45.2348 137.436 40.4951 141.006C36.0821 144.308 30.3057 146.148 24.1549 146.148C18.0041 146.148 12.2277 144.308 7.81464 141.006C3.07497 137.436 0.491768 132.63 0.491768 127.428C0.491768 122.225 3.07532 117.419 7.81559 113.849C12.2283 110.547 18.0348 108.708 24.1549 108.708C29.9444 108.708 35.4507 110.337 39.7437 113.309ZM47.818 53.8296V54.3509L48.3148 54.1931L123.347 30.3622L123.613 30.2777V29.9987V10.6532V10.1319L123.116 10.2897L48.0839 34.1206L47.818 34.2051V34.4841V53.8296ZM123.644 100.853V100.851C123.644 97.7401 121.735 94.9208 118.791 92.8966C115.842 90.8695 111.814 89.6065 107.456 89.6065C103.099 89.6065 99.0708 90.8695 96.1219 92.8966C93.1772 94.9208 91.269 97.7401 91.269 100.851C91.269 103.961 93.1772 106.781 96.1219 108.805C99.0708 110.832 103.099 112.095 107.456 112.095C111.799 112.095 115.819 110.832 118.768 108.805C121.712 106.781 123.628 103.962 123.644 100.853ZM7.96754 127.428C7.96754 130.538 9.87581 133.358 12.8205 135.382C15.7694 137.409 19.7976 138.672 24.1549 138.672C28.5116 138.672 32.5399 137.417 35.4889 135.394C38.4343 133.373 40.3422 130.553 40.3422 127.428C40.3422 124.317 38.4339 121.498 35.4892 119.474C32.5404 117.447 28.5121 116.184 24.1549 116.184C19.7976 116.184 15.7694 117.447 12.8205 119.474C9.87581 121.498 7.96754 124.317 7.96754 127.428Z" fill="#DA8F67" stroke="white" stroke-width="0.762834"/>
</svg>
