<svg width="160" height="147" viewBox="0 0 160 147" fill="none" xmlns="http://www.w3.org/2000/svg">
<path d="M159.033 141.404L82.798 1.59923C81.6328 -0.533077 78.15 -0.533077 76.9847 1.59923L0.749433 141.404C0.18606 142.434 0.208744 143.689 0.804434 144.7C1.40012 145.711 2.4843 146.332 3.6561 146.332H156.126C157.298 146.332 158.382 145.711 158.978 144.7C159.574 143.689 159.596 142.434 159.033 141.404ZM9.24975 139.68L31.5426 98.8351C31.9332 116.259 41.4941 131.419 55.5771 139.68H9.24975ZM76.5767 139.51C55.0874 137.793 38.116 119.734 38.116 97.7382C38.116 75.742 55.0874 57.6808 76.5767 55.9629V139.51ZM76.5767 49.3116C68.623 49.8603 61.2075 52.3371 54.763 56.2903L76.5767 16.3227V49.3116ZM83.206 16.3227L104.994 56.2426C98.5532 52.3088 91.1476 49.8482 83.206 49.3091V16.3227ZM83.206 55.9601C104.72 57.6534 121.719 75.7248 121.719 97.7382C121.719 119.752 104.72 137.82 83.206 139.513V55.9601ZM104.257 139.68C118.317 131.433 127.867 116.309 128.288 98.9221L150.533 139.68H104.257Z" fill="#CA5F67"/>
</svg>
