<svg width="23" height="17" viewBox="0 0 23 17" fill="none" xmlns="http://www.w3.org/2000/svg">
<path d="M19.757 0H2.82243C1.26374 0 0 1.2366 0 2.76181V13.8091C0 15.3343 1.26374 16.5709 2.82243 16.5709H19.757C21.3157 16.5709 22.5794 15.3343 22.5794 13.8091V2.76181C22.5794 1.2366 21.3157 0 19.757 0ZM15.1113 7.36976L21.0855 2.35992C21.1269 2.48938 21.1682 2.61884 21.1682 2.76181V13.8091C21.1682 13.9048 21.131 13.9898 21.1117 14.0801L15.1113 7.36976ZM19.757 1.38091C19.8507 1.38091 19.9334 1.41599 20.0216 1.43351L11.2897 8.75744L2.55783 1.43351C2.64603 1.41599 2.72872 1.38091 2.82243 1.38091H19.757ZM1.46705 14.0788C1.44773 13.9884 1.41121 13.9048 1.41121 13.8091V2.76181C1.41121 2.61884 1.45324 2.48938 1.49461 2.35992L7.46678 7.36842L1.46705 14.0788ZM2.82243 15.19C2.67981 15.19 2.55024 15.1495 2.42001 15.1104L8.53895 8.26787L10.8308 10.1895C10.9624 10.3015 11.1264 10.3568 11.2897 10.3568C11.453 10.3568 11.617 10.3015 11.7486 10.1896L14.0405 8.26791L20.1594 15.1104C20.0299 15.1495 19.9003 15.19 19.757 15.19H2.82243Z" fill="#4F66C3"/>
</svg>
